<svg version="1.1" id="Layer_1" xmlns="http://www.w3.org/2000/svg" xmlns:xlink="http://www.w3.org/1999/xlink" x="0px"
	y="0px" viewBox="0 0 1366 768" style="enable-background:new 0 0 1366 768;" xml:space="preserve">
	<style type="text/css">
		.st0 {
			fill: #F3E0B5;
		}

		.st1 {
			fill: #B1B0B5;
		}

		.st2 {
			fill: #CAC9CD;
		}

		.st3 {
			fill: #E3C770;
		}

		.st4 {
			fill: #CBB469;
		}

		.st5 {
			fill: #B19C59;
		}

		.st6 {
			fill: #86743D;
		}

		.st7 {
			fill: #6F6031;
		}

		.st8 {
			fill: #C87137;
		}

		.st9 {
			fill: #7D4D2D;
		}

		.st10 {
			fill-rule: evenodd;
			clip-rule: evenodd;
			fill: #F3E0B5;
		}

		.st11 {
			fill: #FFFFFF;
		}
	</style>
	<path class="st0" d="M0,1h1366v768H0V1" />
	<g class="windmill">
		<g class="windmill-bottom">
			<path class="st1" d="M1280.9,470h-16.7l4.5-241.2h7.6L1280.9,470" />
			<path class="st2" d="M1280.9,470h-6.7V228.8h2.2L1280.9,470" />
		</g>
		<g class="windmill-top">
			<path class="st2" d="M1279.2,179.6c0,19.4-4.1,36.2-6.4,44.1c-0.5,0-1,0-1.5,0s-1,0-1.5,0c-2.3-7.9-6.4-24.7-6.4-44.2
		c0-27,7.9-49,7.9-49S1279.2,152.5,1279.2,179.6" />
			<path class="st1"
				d="M1279.2,179.6c0,19.4-4.1,36.2-6.4,44.1c-0.5,0-1,0-1.5,0v-93.1C1271.3,130.6,1279.2,152.5,1279.2,179.6" />
			<path class="st2" d="M1225.7,239.5c18.2-9.7,35.9-14.8,44.5-17c0.3,0.4,0.5,0.8,0.8,1.2s0.5,0.8,0.8,1.2
		c-6.2,5.8-19.9,17.5-38.1,27.2c-25.3,13.5-49.7,18.2-49.7,18.2S1200.4,253,1225.7,239.5" />
			<path class="st1" d="M1225.7,239.5c18.2-9.7,35.9-14.8,44.5-17c0.3,0.4,0.5,0.8,0.8,1.2l-87.1,46.6
		C1183.8,270.3,1200.4,253,1225.7,239.5" />
			<path class="st1" d="M1316.9,239.5c-18.2-9.7-35.9-14.8-44.5-17c-0.3,0.4-0.5,0.8-0.8,1.2s-0.5,0.8-0.8,1.2
		c6.2,5.8,19.9,17.5,38.1,27.2c25.3,13.5,49.7,18.2,49.7,18.2S1342.2,253,1316.9,239.5" />
			<path class="st2" d="M1316.9,239.5c-18.2-9.7-35.9-14.8-44.5-17c-0.3,0.4-0.5,0.8-0.8,1.2l87.1,46.6
		C1358.8,270.3,1342.2,253,1316.9,239.5" />
			<path class="st1"
				d="M1277.4,225.4c0,3.1-2.7,5.7-6.1,5.7s-6.1-2.5-6.1-5.7c0-3.1,2.7-5.7,6.1-5.7S1277.4,222.3,1277.4,225.4" />
		</g>
	</g>
	<g class="floor-1">
		<path class="st3" d="M1365,402c-133.9,33.9-415.4,97.5-573.1,77.3c-211.9-27.1-258.7-61-416.4-58.8C268.4,422.1,98.8,471.6,1,503.2
		V768h1364V402" />
		<path class="st0" d="M773.3,517c0,2.5-5.4,4.5-12.1,4.5c-6.7,0-12.1-2-12.1-4.5s5.4-4.5,12.1-4.5
		C767.9,512.6,773.3,514.6,773.3,517" />
		<path class="st0"
			d="M513.9,450.4c0,2.5-3.8,4.5-8.5,4.5s-8.5-2-8.5-4.5s3.8-4.5,8.5-4.5C510.1,445.9,513.9,447.9,513.9,450.4" />
		<path class="st4" d="M505.2,517.1c0,0.7-1.8,1.5-5,2s-7.6,0.8-12.1,0.8c-9.4,0-17.1-1.3-17.1-2.8s7.6-2.8,17.1-2.8
		c4.5,0,8.9,0.3,12.1,0.8C503.4,515.7,505.2,516.4,505.2,517.1" />
		<path class="st4" d="M635,470.3c0,1.7-5.4,3-12.1,3s-12.1-1.3-12.1-3s5.4-3,12.1-3S635,468.7,635,470.3" />
		<path class="st5"
			d="M593.3,454.7c0,2.5-3.8,4.5-8.5,4.5s-8.5-2-8.5-4.5s3.8-4.5,8.5-4.5S593.3,452.2,593.3,454.7" />
		<path class="st0" d="M615.3,496c0,1.2-0.9,2.3-2.5,3.2c-1.6,0.8-3.8,1.3-6,1.3c-2.3,0-4.4-0.5-6-1.3s-2.5-2-2.5-3.2
		c0-2.5,3.8-4.5,8.5-4.5S615.3,493.6,615.3,496" />
		<path class="st4" d="M1046.4,490.4c0,1.6-7.2,2.9-16.2,2.9c-8.9,0-16.2-1.3-16.2-2.9c0-0.8,1.7-1.5,4.7-2s7.1-0.8,11.4-0.8
		s8.4,0.3,11.4,0.8C1044.7,488.9,1046.4,489.6,1046.4,490.4" />
		<path class="st0" d="M794.7,483.4c0,0.5-0.9,0.9-2.5,1.2c-1.6,0.3-3.8,0.5-6,0.5c-2.3,0-4.4-0.2-6-0.5s-2.5-0.8-2.5-1.2
		c0-0.5,0.9-0.9,2.5-1.2c1.6-0.3,3.8-0.5,6-0.5c2.3,0,4.4,0.2,6,0.5C793.8,482.5,794.7,482.9,794.7,483.4" />
		<path class="st5" d="M1240.2,463.1c0,1.6-3.8,2.9-8.5,2.9s-8.5-1.3-8.5-2.9s3.8-2.9,8.5-2.9
		C1236.3,460.2,1240.2,461.5,1240.2,463.1" />
		<path class="st6" d="M1265.2,543.2c0,0.6-0.9,1.2-2.5,1.6c-1.6,0.4-3.8,0.7-6,0.7c-4.7,0-8.5-1-8.5-2.3s3.8-2.3,8.5-2.3
		c2.3,0,4.4,0.2,6,0.7S1265.2,542.6,1265.2,543.2" />
		<path class="st5"
			d="M1341,455.6c0,1.7-5.6,3.1-12.5,3.1s-12.5-1.4-12.5-3.1s5.6-3.1,12.5-3.1S1341,453.9,1341,455.6" />
		<path class="st0"
			d="M1134.5,511.2c0,1.3-8,2.3-18,2.3c-9.9,0-18-1-18-2.3s8-2.3,18-2.3C1126.5,508.9,1134.5,509.9,1134.5,511.2" />
		<path class="st0" d="M322.1,462.2c0,0.5-1.3,0.9-3.5,1.2c-2.3,0.3-5.3,0.5-8.5,0.5s-6.3-0.2-8.5-0.5c-2.3-0.3-3.5-0.8-3.5-1.2
		c0-0.9,5.4-1.7,12.1-1.7C316.7,460.4,322.1,461.2,322.1,462.2" />
	</g>

	<g class="tree">
		<path class="st7"
			d="M837.9,421c-9.9-1.9-19-5.1-27.6-8.5c-4.1-1.6-6.9-4.2-11.3-5.5c-3.9-1.2-8.6-2.6-12.8-1.8
		c-5.2,1-5.4,6.8-10.7,7.3c-8.1,0.7-12.7-6.5-20.5-7.9c-5.2-0.9-12.2,2.1-16.4,0c-2.7-1.3,0.5-4.7-2-6.1c-2.8-1.5-7.6-1.1-11.3-0.6
		c-4.2,0.5-7,3.3-11.3,3.6c-4.8,0.4-9.9-0.6-14.3-1.8c-4-1.1-7.9-2.7-10.2-4.9c-2.3-2.1,0.1-5.6-3.1-7.3c-4.9-2.5-19.5-1.2-19.5-1.2
		c-8-1.4-16.3-2.6-16.4-10.3c-13.6-10-5-15.3-5.1-22.5l438.2,24.3c0,0-7.3,16.5-17.4,21.9c-8.3,4.5-24.2,1.7-31.7,6.7
		c-4.7,3.1-0.3,9.1-5.1,12.1c-7.9,4.9-23.3,2.3-32.8,6.1c-6.2,2.5-7.3,8.8-14.3,10.3C936.7,445.1,884.2,430.1,837.9,421" />
		<path class="st8" d="M736.4,583.7c0,0,2.6-6.4,5.6-7.9c1.8-0.9,5.3,1.7,6.2,0c2.5-4.4,10.1-15.3,11.5-14.6
		c2.4-5.9,1.2-11.3,8.2-17.9l20-6.1l17.1,3.9l8.9-4.6l7.2,0.9c12.1-17.6,23.3-35.6,27.6-58c2.8-21.4-0.5-46.3-3.9-69.2
		c-2.3-15.1-6.5-29.2-16.1-43.1l17.7-1.8c6.2,15.4,11,18.7,15.4,19.7l18.7,8.2l6.2-7c10.6-4.4,15-14.7,20.7-23.7l23.3,10
		c-3.8,6.7-4.7,14.4-8.5,20.9c-1.1,1.8-3.4,2.9-3.9,4.9c-1.6,5.5,2.3,17,2.3,17c10.7-2.6,15.7-8.6,21.4-14.3l8.2,7.7
		c-14.9,14.5-20.1,29-25.6,43.6c-3.2,9.7-1.1,19.6,1.3,29c1.6,6.3,5.1,12,8.5,17.6c4.3,6.9,8.4,14.8,15,19.3l1.6,5.5l21,11.8
		c16.7,3.4,16.7,13.8,23.2,21.6c7.9,5.8,9.5,13.2,14.1,19.7c-11.1-4.5-22.4-4.8-33.5-13.7c-7.2,2.2-14.6,3.2-31.2,3l-4.3-3.3
		l-5.6,4.6c-5.4-7.6-13.9-11.1-23.7-13.1c-14.2,8.3-28.4,16.3-46,12.8c0,0-6.7,3.8-10.5,4.6c-1.8,0.4-3.7-0.1-5.6,0
		c-7.5,0.4-22.3,2.4-22.3,2.4c-9.6,4.8-17.3,12.2-26.9,16.7c-7.7,3.6-24.3,8.2-24.3,8.2l11.5-9.4V586c3.8-8.4,13.9-13.3,21.7-19.4
		l-7.2-0.9c-2.5,2.9-10.1,3.5-21.4,2.4c-5.8,6.8-11.2,11.4-16.1,13.4l-0.7-7.9C755,579.2,745.7,581.3,736.4,583.7" />
		<path class="st9" d="M866,462.2c0,0-0.4,4.7-1.1,9.9c-0.4,2.6-0.8,5.4-1.3,7.8s-1.1,4.4-1.7,5.3l1.6,0.8c0.8-1.3,1.3-3.4,1.9-5.8
		c0.5-2.4,1-5.2,1.4-7.9c0.7-5.3,1.2-10,1.2-10L866,462.2" />
		<path class="st9"
			d="M892.8,470.7l-1.8,0.2c3.3,30.3,0.3,33.9-1.3,43.8l1.8,0.3C893.1,505.3,896.1,501.1,892.8,470.7" />
		<path class="st9" d="M860.4,499.2c0,0-1,7.7-3.1,16.2c-1.1,4.2-2.4,8.6-4,12.3s-3.6,6.6-5.6,8l1.1,1.4c2.6-1.7,4.6-4.9,6.3-8.7
		s3.1-8.3,4.1-12.6c2.2-8.6,3.1-16.3,3.1-16.3L860.4,499.2" />
		<path class="st9" d="M842.7,543.6c-0.9,1.8-3.6,3.9-7.4,5.8c-3.8,1.9-8.6,3.5-13.7,4.7c-5.3,1.2-10,4.2-12.8,9.6l1.7,0.7
		c2.5-4.9,6.7-7.5,11.5-8.6c5.2-1.2,10.1-2.9,14.1-4.8c4-2,7-4.1,8.2-6.6L842.7,543.6" />
		<path class="st9" d="M794.3,550.4c-4.7-0.3-8.7,0.6-11.8,2.6c-3.1,1.9-5.1,4.8-5.9,8.5c-0.5,2.6-3.1,4.2-6.3,5.8s-6.8,2.9-9,5.4
		l1.5,1.1c1.7-2,5.1-3.4,8.4-5c3.3-1.6,6.5-3.5,7.2-6.9c0.7-3.2,2.5-5.7,5.1-7.4s6.3-2.5,10.7-2.3L794.3,550.4" />
		<path class="st9" d="M849.8,535.4c-2.3,0-4.7,0.1-7,0.4l0.2,1.7c9.1-1,17.8,0.1,26.1,3.9l0.8-1.5
		C863.5,536.9,856.7,535.5,849.8,535.4" />
		<path class="st9" d="M849.1,559.2c-4.3,0.3-7.3,1.5-7.3,1.5l0.8,1.6c0,0,10.9-4.6,20,2.6l1.2-1.3
		C858.9,559.7,853.4,558.9,849.1,559.2" />
		<path class="st9" d="M938,549c0,0-0.7,1.3-0.8,3.5c-0.1,2.3,0.4,5.6,2.4,9.9l1.7-0.7c-1.9-4.1-2.3-7.2-2.2-9.2s0.6-2.8,0.6-2.8
		L938,549" />
		<path class="st9"
			d="M872.9,507.7c-1.6-0.1-2.7-0.1-3.6,0c-0.8,0.1-1.4,0.4-1.8,0.6c-0.2,0.1-0.3,0.3-0.4,0.4s-0.2,0.3-0.2,0.3
		l1.8,0.5c0,0-0.1,0.1-0.1,0.2l0,0c0.1-0.1,0.3-0.2,1-0.3c1.3-0.2,4-0.1,9.1,1.1l0.5-1.7C876.6,508.2,874.5,507.8,872.9,507.7" />
		<path class="st9" d="M880.4,480.9c-4.2-0.2-8.1,0.5-8.1,0.5l0.3,1.7c0,0,6.8-1.1,11.4,0l0.5-1.7C883.2,481.1,881.8,481,880.4,480.9
		" />
		<path class="st9" d="M912.8,464l-1.9,0.1c0,0,0.8,10.5,1.8,21.3c0.5,5.4,1,10.9,1.4,15.2c0.2,2.2,0.4,4,0.6,5.4
		c0.2,1.4,0.3,2.3,0.5,2.9c0.6,1.5,2.7,5.8,4.6,10.2c1,2.2,1.9,4.4,2.6,6.2c0.3,0.9,0.6,1.7,0.8,2.3s0.2,1.1,0.2,1.2l1.8,0.2
		c0.1-0.6,0-1.1-0.2-1.8s-0.5-1.6-0.8-2.5c-0.7-1.9-1.6-4.1-2.6-6.3c-2-4.4-4.2-8.9-4.6-10.1c0-0.1-0.2-1.1-0.4-2.5
		s-0.4-3.3-0.6-5.4c-0.4-4.3-0.9-9.8-1.4-15.2C913.6,474.5,912.8,464,912.8,464" />
		<path class="st9" d="M920.8,467.6c0,0-0.7,4.4-1.2,9.4c-0.2,2.5-0.4,5.1-0.3,7.3c0,2.3,0.2,4.1,1,5.4c1.1,1.9,1.1,2.7,1.3,4.3
		c0.2,1.6,0.6,3.8,2.2,7.8c1.7,4,2.8,5.8,3.9,7c1.1,1.2,1.9,1.7,3.1,3.2c0.9,1.2,1.2,2,2,3.2c0.8,1.1,1.9,2.4,4.5,4.3
		c5.1,3.8,10.6,4.4,10.6,4.4l0.2-1.7c0,0-5-0.6-9.7-4.1c-2.4-1.8-3.4-2.9-4-3.8c-0.6-1-1-1.9-2-3.3c-1.3-1.7-2.3-2.3-3.2-3.3
		s-2-2.6-3.6-6.5s-1.9-5.8-2.1-7.3c-0.2-1.5-0.3-2.8-1.5-4.9c-0.4-0.7-0.7-2.5-0.8-4.6c0-2.2,0.1-4.7,0.3-7.1
		c0.4-4.9,1.2-9.2,1.2-9.2L920.8,467.6" />
		<path class="st9" d="M987.5,549.7c-2.2,0.1-5,0.9-7.3,3.3l1.4,1.1c3.9-4.2,9.2-2.5,9.2-2.5l0.6-1.6
		C991.4,550.1,989.7,549.6,987.5,549.7" />
		<path class="st9" d="M969.6,533.4c0,0-2.1,0.9-4.4,2.2c-2.3,1.3-4.9,2.8-6.1,4.5l1.5,1c0.8-1.1,3.3-2.7,5.5-3.9
		c2.3-1.2,4.3-2.1,4.3-2.1L969.6,533.4" />
		<path class="st9" d="M949.6,522c-2.9,0-9.3,0.6-14.4,5.8l1.4,1.2c6.3-6.4,14.3-5.2,14.3-5.2l0.3-1.7
		C951.1,522.1,950.6,522.1,949.6,522" />
		<path class="st9" d="M920.8,536.9c0,0,0,5.4,2,11.3c2,5.9,6,12.4,14.2,14.1l0.4-1.7c-7.3-1.6-11-7.4-12.8-13
		c-1.9-5.6-1.9-10.8-1.9-10.8h-1.9" />
		<path class="st9" d="M919.7,538.1l-1.9,0.2c0,0,0.8,10.1-4.4,15.4l1.4,1.1C920.9,548.6,919.7,538.1,919.7,538.1" />
		<path class="st9" d="M850.9,430.9l-1.6,0.8c0,0,0.4,0.6,1.1,1.3c0.8,0.7,2,1.7,3.8,2.5c3.6,1.6,9.5,2.9,18.7,1.5l-0.3-1.7
		c-8.9,1.3-14.3,0.1-17.6-1.3c-1.6-0.7-2.7-1.5-3.3-2.1S850.9,430.9,850.9,430.9" />
		<path class="st9" d="M891.3,445.9c-9-0.4-17.3,3.7-17.3,3.7l0.9,1.5c0,0,14.2-6.7,24.4-1.5l0.9-1.5
		C897.3,446.7,894.3,446.1,891.3,445.9" />
		<path class="st9" d="M911.5,442.6l-1.8,0.5c0,0,1.1,3.7,3.4,6.9c1.1,1.6,2.6,3.2,4.4,4.2c1.8,1,4.2,1.3,6.6,0.3l-0.7-1.6
		c-2,0.7-3.5,0.5-5-0.3c-1.4-0.8-2.7-2.1-3.8-3.6C912.5,446.1,911.5,442.6,911.5,442.6" />
		<path class="st9" d="M879.5,393.3c0,0-0.8,3.3-2.2,6.8c-1.5,3.5-3.8,7.2-6.2,8.1c-7.2,2.7-12.1,7.6-16.1,12.2l1.4,1.1
		c4-4.6,8.6-9.1,15.4-11.7c3.5-1.3,5.7-5.4,7.2-9.1s2.3-7.1,2.3-7.1L879.5,393.3" />
		<path class="st9" d="M857.6,398c-4.8-0.3-8.2,2-10.3,4.4s-3,4.8-3,4.8l1.8,0.6c0,0,0.8-2.2,2.7-4.3c1.9-2.1,4.6-4,8.7-3.7
		L857.6,398" />
		<path class="st9" d="M922.4,428.9h-1.9c0,0,0.2,6.4,0.9,11.8c0.4,2.7,0.8,5.1,1.6,6.6c0.2,0.4,0.4,0.7,0.8,1
		c0.4,0.3,0.9,0.4,1.4,0.3c1-0.2,1.5-1,2.1-2.1l-1.7-0.8c-0.5,0.9-0.8,1.1-0.8,1.1c-0.1-0.1-0.1-0.1-0.2-0.3c-0.5-1-1.1-3.4-1.5-6
		C922.5,435.2,922.4,428.9,922.4,428.9" />
		<path class="st9" d="M893.5,382.1c-0.9,0.1-1.4,0.3-1.4,0.3l0.7,1.6c0,0,1.6-0.6,4.1-0.2s6,1.7,9.4,5.7l1.5-1.1
		c-3.7-4.3-7.6-5.9-10.6-6.4C895.7,381.9,894.4,381.9,893.5,382.1" />
		<path class="st9"
			d="M907.2,400.6l-0.4,1.7c10,2.1,11.6,9.6,11.6,9.6l1.8-0.4C920.3,411.5,918.2,402.8,907.2,400.6" />
		<path class="st6" d="M857.8,368.6c-7.1-1.8-12.7,6.7-19.8,8.3c-12,2.6-24.8,1.1-37.2,1.4c-5.5,0.1-11.6,2.1-16.5,0
		c-2.5-1-2.4-4.6-5-5.5c-6.1-2.2-13.4,3.7-19.8,2.1c-9.4-2.3-12.6-16.9-22.3-15.8c-6.7,0.7-4.9,13.3-11.6,13.8
		c-3.5,0.3-4-6.6-7.4-6.2c-3.2,0.3-2.2,5.6-5,6.9c-7.7,3.6-20.4,5.3-26.4,0c-3.6-3.2,4.5-10,0.8-13.1c-4.7-3.9-13.3,1.5-19.8,0.7
		c-4.3-0.5-8.1-4-12.4-3.4c-3.3,0.4-5,4.2-8.3,4.8c-4.1,0.7-8.6-0.5-12.4-2.1c-4.2-1.7-6.2-6.6-10.7-7.6c-3.8-0.8-7.7,2.6-11.6,2.1
		c-4.8-0.7-10-2.7-12.4-6.2c-1.5-2.2,0.1-5.1,0-7.6c-0.1-6.4-3.9-13.4-0.8-19.3c1.3-2.5,5.3-3.4,7.4-5.5c3-2.9,6.9-5.8,7.4-9.6
		c0.9-6.3-8.1-11.6-7.4-17.9c0.5-4.2,2.7-9.5,7.4-11c4.1-1.3,8.1,2.7,12.4,3.4c2.4,0.4,5.3,1.7,7.4,0.7c6.5-3.1,3.1-13.4,9.1-17.2
		c6.8-4.4,17.8-0.3,25.6-3.4c3.3-1.3,5-4.7,8.3-6.2c3.5-1.6,8.4-0.7,11.6-2.8c2.1-1.3,2-4.3,4.1-5.5c7.2-4.1,19,0.5,25.6-4.1
		c10.6-7.4,2.7-26.8,14.9-32.4c4.9-2.3,12.2,5.7,16.5,2.8c3.2-2.2-2.9-7.9,0-10.3c2.3-1.9,6.8,0.9,9.9,0c5-1.5,9-4.9,12.4-8.3
		c3.3-3.2,4.1-7.9,7.4-11c3.4-3.2,7.5-6.3,12.4-7.6c5.5-1.4,11.8-0.7,17.4,0.7c2.1,0.5,3.6,3.1,5.8,2.8c4.4-0.7,5.2-6.2,8.3-9
		c2-1.8,5.6-2.5,6.6-4.8c1-2.4-2.6-5.1-1.7-7.6c2.5-6.3,9.4-13.2,17.4-13.8c9.3-0.6,14.4,10.4,23.1,13.1c9.1,2.8,20.9-1.8,28.9,2.8
		c2.9,1.6,2.2,5.8,5,7.6c5.2,3.4,14.4,0.3,19,4.1c4,3.4,0.6,10.1,4.1,13.8c1.6,1.7,4.4,2.8,7,3.1c2,0.2,3.9-1.6,5.8-1
		c3,0.9,4.9,3.7,5.8,6.2c0.8,2.2-2.6,5.1-0.8,6.9c1.8,1.7,5.5,0.1,8.3,0.3c2.1,0.2,4.1,0.9,6.2,0.7c2.9-0.3,5.5-3.7,8.3-2.8
		c4.1,1.3,4.6,6.4,5.8,10c1,3.2-1.3,7.2,0.8,10c3.1,4.1,10.2,4.9,15.3,7.2c7,3.3,14.3,6.1,21.1,9.6c4.9,2.6,11.4,4.3,14,8.6
		c1.9,3.1,0.9,7,0,10.3c-0.4,1.4-2.8,2.5-2.1,3.8c2.8,4.6,13.5,0,18.2,3.4c4.8,3.5,4.4,9.9,6.6,14.8c1.4,3,1,7.1,4.1,9
		c1.5,0.8,4.1,1.1,5.4,0c0.8-0.7-1-2.4,0-2.8c5.6-2.1,9.2,6.8,14,10c3.6,2.3,8.6,3.4,11.2,6.5c1.1,1.4,0.7,3.2,1.2,4.8
		c1.2,3.5,1.7,7.6,4.5,10.3c2.7,2.6,6.8,5.6,10.7,4.8c1.4-0.3,1.1-2.7,2.5-3.1c1.8-0.5,4.3,0.1,5.4,1.4c3.2,3.7-0.8,9.2-0.4,13.8
		c0.5,5.7,6.6,11.7,3.7,16.9c-2.3,4.1-12.1,2.7-14,6.9c-2,4.4,5.6,8.8,5,13.4c-0.8,5.3-4.5,10.9-9.9,13.8
		c-5.5,2.9-13.4,3.5-19.4,1.4c-1.6-0.6-1.7-2.8-3.3-3.4c-7-2.9-18-5.4-23.6-0.7c-1.8,1.6,2.4,5.1,0.4,6.5c-2.9,2.1-7.3-2-11.2-2.1
		c-3.6-0.1-7.1,1.1-10.7,1.4c-2.2,0.1-5.7-1.7-6.6,0c-1,1.8,5.8,2.8,4.5,4.5c-1,1.3-3.7-0.4-5.4-1c-6.9-2.5-11.2-9.4-18.6-10.7
		c-8.3-1.4-16.4,3.4-24.8,4.1c-15.7,1.4-31.7,1.9-47.5,0.7c-16.4-1.3-31.9-7.3-48.3-8.3c-4.1-0.2-8.8,2.3-12.4,0.7
		C859.6,374.2,860.8,369.4,857.8,368.6" />
	</g>
	<path class="st4" d="M1017.7,745.4c-0.2-0.1-0.3-0.1-0.5-0.1s-0.3,0.2-0.4,0.3c-4,6.7-9.3,12.1-16.3,15.8c-0.3,0.2-0.4,0.6-0.3,0.9
	c0.2,0.3,0.6,0.4,0.9,0.3c7.2-3.9,12.7-9.4,16.8-16.3c0.1-0.1,0.1-0.3,0.1-0.5C1018,745.6,1017.9,745.5,1017.7,745.4" />
	<path class="st4" d="M99,700.9c-8.1,19.1-10.9,40.2-6,64.4l1.3-0.3c-4.9-24-2.1-44.8,5.9-63.7L99,700.9" />
	<path class="st4" d="M128.7,720c-14.3,12.7-26.8,28.6-33.4,49.1l1.3,0.4c6.4-20.3,18.8-35.9,33-48.5L128.7,720" />
	<path class="st4" d="M155.1,740.1c-16.3,13-35.5,21.4-56.2,27.6l0.4,1.2c20.8-6.2,40.1-14.7,56.6-27.8L155.1,740.1" />
	<path class="st4" d="M66.2,703.5l-1.1,0.7c8.6,12.6,17.3,39.2,26.1,63.5l1.2-0.4C83.7,743,75,716.5,66.2,703.5" />
	<path class="st4" d="M53.4,729.8l-1.1,0.7c12.3,18.1,24.6,29.2,36.8,39.7l0.9-1C77.7,758.8,65.5,747.8,53.4,729.8" />
	<path class="st6" d="M16.3,579.2c0,1.2-0.9,2.3-2.5,3.2c-1.6,0.8-3.8,1.3-6,1.3s-4.4-0.5-6-1.3s-2.5-2-2.5-3.2
	c0-2.5,3.8-4.5,8.5-4.5S16.3,576.7,16.3,579.2" />
	<g class="floor-2">
		<path class="st4" d="M83.3,430.3C55.4,430,27.5,433.8,1,442v326h727c-14.7-70.5-58-135.4-119.2-178c-64.8-45-154.6-27.6-228.2-52.7
		c-45.4-15.5-85.7-42.2-130.2-59.9c-43.1-17.1-85.6-37.8-132-44.4C106.7,431.4,95,430.5,83.3,430.3" />
		<path class="st6" d="M53.4,504.2c0,0.7-1.3,1.4-3.8,1.9c-2.4,0.5-5.7,0.8-9.1,0.8s-6.7-0.3-9.1-0.8s-3.8-1.2-3.8-1.9
		c0-0.7,1.3-1.4,3.8-1.9c2.4-0.5,5.7-0.8,9.1-0.8s6.7,0.3,9.1,0.8C52.1,502.8,53.4,503.5,53.4,504.2" />
		<path class="st0" d="M37.7,531.9c0,1.2-1.5,2.3-4.1,3.2c-2.6,0.8-6.1,1.3-9.8,1.3s-7.2-0.5-9.8-1.3s-4.1-2-4.1-3.2
		c0-2.5,6.2-4.5,13.9-4.5S37.7,529.4,37.7,531.9" />
		<path class="st0" d="M110.1,580.3c0,0.9-1.3,1.7-3.5,2.3c-2.3,0.6-5.3,0.9-8.5,0.9s-6.3-0.3-8.5-0.9c-2.3-0.6-3.5-1.4-3.5-2.3
		c0-1.8,5.4-3.2,12.1-3.2C104.7,577.1,110.1,578.5,110.1,580.3" />
		<path class="st0" d="M358.9,595.9c0,0.9-1.9,1.7-5.4,2.4c-3.4,0.6-8.1,1-13,1s-9.5-0.4-13-1c-3.4-0.6-5.4-1.5-5.4-2.4
		c0-1.9,8.2-3.4,18.3-3.4C350.7,592.5,358.9,594,358.9,595.9" />
		<path class="st6" d="M194.9,512.5c0,1.9-11.2,3.4-25.1,3.4s-25.1-1.5-25.1-3.4c0-0.9,2.6-1.7,7.4-2.4s11.1-1,17.8-1
		s13.1,0.4,17.8,1S194.9,511.6,194.9,512.5" />
		<path class="st6" d="M255.2,552.7c0,0.8-1.2,1.5-3.4,2s-5.2,0.8-8.3,0.8s-6.1-0.3-8.3-0.8s-3.4-1.3-3.4-2c0-1.6,5.3-2.9,11.7-2.9
		S255.2,551.1,255.2,552.7" />
	</g>
	<g class="house">
		<path class="st8" d="M249.6,370.3l8.5,66.9c31.1-5.8,35.2-5.8,79.9-6.7l-4.8-73.1L249.6,370.3" />
		<path class="st8" d="M243.5,316.3l7.2,43.6l12.5-1.7l-4.5-47.3L243.5,316.3" />
		<path class="st6" d="M284.5,303l-50,71.4L353,360.3L284.5,303z" />
		<path class="st3" d="M268.9,435.8l-6.4-38.7l22-2.6l3.7,38.5L268.9,435.8" />
		<path class="st3" d="M292.3,379.3l5.5,28.2l32.4-3.9l-2.7-29.9L292.3,379.3" />
		<path class="st8" d="M307.2,376.8l4.4,29.5l2.6-0.6l-5.1-29.7L307.2,376.8" />
		<path class="st8" d="M328.8,386.8l-34.4,5.3l0.7,2.9l33.9-5.6L328.8,386.8" />
		<path class="st0" d="M300.6,318.7c0,0-0.9,2-2.2,4.1c-1.3,2.1-3.2,4.2-4.5,4.6c-1.1,0.3-2.2-0.4-3.6-1.4s-2.9-2.2-4.8-2
		c-1.7,0.2-2.9,1.5-4,2.6s-2,2.1-3.1,2.3c-1,0.2-3-0.3-4.6-0.9s-2.9-1.2-2.9-1.2l-0.6,1.5c0,0,1.3,0.7,3,1.3
		c1.7,0.6,3.7,1.2,5.3,0.9c1.7-0.3,2.8-1.6,3.9-2.7s2-2,3.1-2.1s2.4,0.7,3.8,1.7s3,2.1,4.8,1.6c2.2-0.6,4-3.1,5.4-5.3
		c1.4-2.2,2.4-4.3,2.4-4.3L300.6,318.7" />
		<path class="st0" d="M309,332.2c-1.3,0.2-2.4,1-3.3,1.9c-0.9,1-1.5,2.1-2.2,3.2s-1.3,2.1-2,2.9s-1.4,1.3-2.3,1.5
		c-1.9,0.3-3.7-1.1-5.8-2.7c-2-1.6-4.3-3.5-7-3.1c-2,0.3-3,2.1-3.9,3.7c-0.9,1.5-1.7,2.7-2.9,2.9c-2,0.4-4-0.8-6.2-2.3
		s-4.5-3.2-7.3-3.1c-1.9,0.1-4.1,1.3-5.8,2.5c-1.8,1.1-3.1,2.3-3.1,2.3l1,1.4c0,0,1.3-1.1,3-2.1c1.7-1.1,3.8-2.1,5.1-2.2
		c2.1-0.1,4.2,1.3,6.3,2.8c2.2,1.5,4.6,3.1,7.3,2.6c2-0.4,3-2.2,3.9-3.7s1.7-2.7,2.8-2.9c1.9-0.3,3.7,1.1,5.8,2.7c2,1.6,4.2,3.5,7,3
		c1.3-0.2,2.4-1,3.2-2c0.8-1,1.5-2.1,2.2-3.2c0.6-1.1,1.3-2.1,2-2.9s1.4-1.3,2.3-1.4c2.2-0.3,5.6,1.3,8.4,3.1c2.8,1.8,5,3.7,5,3.7
		l1-1.4c0,0-2.2-2-5.1-3.9C315.6,333.6,312,331.7,309,332.2" />
		<path class="st0" d="M306.6,348.1c-1.3,0.3-2.2,1.2-3,2.2c-0.7,1.1-1.2,2.3-1.8,3.6c-0.5,1.2-1,2.4-1.6,3.3s-1.2,1.5-2,1.7
		c-1,0.2-1.9,0-2.9-0.5s-2-1.4-3.1-2.3c-2.1-1.8-4.4-4-7.2-3.9c-2.8,0.1-4.9,2.2-6.9,4c-2,1.9-3.9,3.5-5.9,3.5c-1.6,0-3-1.4-4.6-2.9
		s-3.3-3.3-5.6-3.3c-2.7,0-5.8,1.8-8.4,3.6c-2.6,1.8-4.6,3.6-4.6,3.6l1,1.3c0,0,1.9-1.8,4.4-3.5s5.6-3.4,7.6-3.4
		c1.6,0,3,1.4,4.6,2.9s3.3,3.3,5.6,3.3c2.8,0,4.9-2,6.9-3.9s3.9-3.5,6-3.6c2-0.1,4,1.7,6.2,3.5c1.1,0.9,2.1,1.8,3.3,2.5
		c1.2,0.6,2.5,1,3.9,0.6c1.3-0.3,2.2-1.2,2.9-2.3c0.7-1.1,1.2-2.4,1.7-3.6s1-2.4,1.6-3.3s1.2-1.4,2-1.6s1.6,0,2.4,0.5
		s1.7,1.3,2.6,2.2c1.8,1.7,3.7,3.8,6.2,3.9c2.3,0.1,5.1-1.4,7.4-2.7c2.3-1.4,4.1-2.8,4.1-2.8l-0.9-1.4c0,0-1.7,1.4-3.9,2.7
		c-2.2,1.3-4.9,2.6-6.6,2.5c-1.8-0.1-3.4-1.7-5.2-3.5c-0.9-0.9-1.8-1.8-2.8-2.4C309,348.2,307.9,347.8,306.6,348.1" />
		<path class="st9" d="M239.8,314.7l22.9-7.5l-0.5,11.7l-20.5,6.1L239.8,314.7" />
	</g>
	<g class="tree-leaves">
		<g class="leaf">
			<path class="st6" d="M521.7,298.3c1.5,2,3.5,1.3,5,0.4c2.3-1.5,3.9-5.3,3.2-8.1c-1.2-4.6-7.2-10-6.2-20.5c-5.1,6.5-10,14.6-9.5,23
			c0.2,3,1.6,6.9,4.2,7.6C519.5,300.9,520.7,299.5,521.7,298.3" />
			<path class="st7" d="M522.6,305.9c-2.4-11.4-2-21.5-0.6-32.5c-0.9,11.3-1.2,21.6,1.3,32.9L522.6,305.9" />
			<path class="st7" d="M517.1,287l-0.3,0.2c1,2.1,2.4,3.7,4.2,4.8l0.2,0.1l0.1-0.2c0.7-2.3,1.5-3.6,2.5-4.1l-0.2-0.4
			c-1,0.6-1.9,1.9-2.5,4.1C519.4,290.4,518.1,288.9,517.1,287" />
			<path class="st7" d="M515.9,291.3l-0.3,0.3c1.7,2.4,3.5,4.4,5.7,5.5l0.1,0.1l0.1-0.1c1.1-1.5,1.5-2.8,4-4.4l-0.2-0.4
			c-2.5,1.6-3,3-4,4.4C519.3,295.5,517.5,293.7,515.9,291.3" />
			<path class="st7" d="M517.8,281.1l-0.3,0.2c1,1.6,1.9,3.4,3.5,4.2l0.2,0.1l0.1-0.2c0.7-1.3,1.5-2.5,2.3-3.6l-0.3-0.3
			c-0.8,1.1-1.6,2.2-2.3,3.5C519.7,284.3,518.7,282.7,517.8,281.1" />
			<path class="st7" d="M519.5,277.6l-0.4,0.2c0.6,1.6,1.3,2.3,2.1,2.5h0.1l0.1-0.1c1-1.1,1.7-1.7,2-2l-0.2-0.4c-0.4,0.3-1.1,1-2,1.9
			C520.6,279.6,520,279.1,519.5,277.6" />
		</g>
		<g class="leaf">
			<path class="st6" d="M446.5,299.5c2.8,0.3,4-1.9,4.5-3.7c0.8-3-0.7-7.1-3.4-8.6c-4.5-2.4-13.7-1.6-20.8-10.1
			c0.5,8.9,2.6,18.9,9.3,24.7c2.4,2.1,6.6,3.8,9.3,2.2C446.8,303.2,446.7,301.1,446.5,299.5" />
			<path class="st7" d="M453.1,304.4c-10.6-6.5-18-14.3-25.1-23.6c7.8,9,15.3,17,26,23.4L453.1,304.4" />
			<path class="st7" d="M439.9,289.9c-0.5,1.3-0.1,3,0.9,5.1c-2.1,0.6-4.4,0.5-6.7-0.2l-0.1,0.4c2.4,0.7,4.8,0.8,7.1,0.1l0.3-0.1
			l-0.1-0.2c-1.2-2.3-1.4-3.9-1-5.1L439.9,289.9" />
			<path class="st7" d="M445.1,292c-0.9,3.2-0.3,4.7-0.1,6.5c-2.5,0.9-5.5,1-8.6,0.5l-0.1,0.4c3.3,0.5,6.3,0.4,9-0.6l0.2-0.1v-0.2
			c-0.2-2-0.9-3.3,0-6.5L445.1,292" />
			<path class="st7" d="M435.7,285.8h-0.5c0.1,1.5,0.4,2.9,0.7,4.4c-1.7,0.6-3.7,0.1-5.7-0.3l-0.1,0.4c2.1,0.4,4.2,1,6.1,0.2l0.2-0.1
			v-0.2C436.1,288.8,435.8,287.3,435.7,285.8" />
			<path class="st7" d="M432.5,283.1c-0.2,0.6-0.2,1.6-0.2,3.1c-0.7,0.4-1.6,0.5-3.1-0.2l-0.2,0.4c1.7,0.8,2.8,0.6,3.7,0.2l0.1-0.1
			v-0.1c0-1.6,0.1-2.6,0.2-3.1L432.5,283.1" />
		</g>
		<g class="leaf">
			<path class="st6" d="M566.8,395.6c1-2.2,1.9-4.5-1.2-6.5c-3.8-1.9-8.4-1.5-14,2.2c-4.7,4.2-7.3,8.3-8.9,13.1
			c-0.4,1.3-1.7,4.1-1.7,4.1c4.1-1.1,5.9-4.5,12.8-2.7c4.2,0.2,9.1,1.5,12.9-0.3c2.2-1,4.4-3,4.4-5.1
			C571.1,398.5,570,396.8,566.8,395.6" />
			<path class="st7" d="M581.8,396.4c-11.5-2.7-23.8-1-39.4,11c11.1-8.3,21.6-15.9,39.6-12.1L581.8,396.4" />
			<path class="st7" d="M560.3,392.7v0.4c2.3,0.1,3.6,1,4.4,2.5c-0.6,1.2-1.1,2.3-1.3,3.3s-0.2,1.9,0.4,2.5l0.4-0.3
			c-0.5-0.5-0.5-1.2-0.3-2.1s0.7-2.1,1.3-3.3v-0.1v-0.1C564.3,393.9,562.8,392.9,560.3,392.7" />
			<path class="st7" d="M557,393.7l-0.1,0.4c1.4,0.2,2.4,1.3,3.4,2.4c-1.2,2-2,4-2.1,5.4h0.5c0.1-1.3,0.8-3.3,2.1-5.3l0.1-0.1
			l-0.1-0.1C559.8,395.3,558.7,394,557,393.7" />
			<path class="st7" d="M550.2,396.3l-0.2,0.4c2.1,0.8,3.8,1.5,5.2,2.3c-1.1,2.2-1.9,3.2-2.7,4.3l0.4,0.2c0.8-1.1,1.6-2.1,2.8-4.5
			l0.1-0.2l-0.2-0.1C554.2,397.9,552.4,397.1,550.2,396.3" />
		</g>
		<g class="leaf">
			<path class="st6" d="M553.4,496.1c-1.7-1.3-1.1-3-0.3-4.2c1.3-2,4.4-3.4,6.8-2.7c3.8,1,8.3,6.2,17.1,5.4
			c-5.4,4.4-12.1,8.5-19.1,8.1c-2.5-0.1-5.8-1.4-6.3-3.6C551.2,498,552.5,496.9,553.4,496.1" />
			<path class="st7" d="M547.1,495.3c9.5,2,17.9,1.7,27.1,0.5c-9.4,0.7-18,1.1-27.4-1.1L547.1,495.3" />
			<path class="st7" d="M562.2,494.4c-0.4,0.8-1.5,1.5-3.4,2.1l-0.2,0.1l0.1,0.2c0.9,1.5,2.3,2.7,4,3.6l0.2-0.3
			c-1.6-0.8-2.9-1.9-3.7-3.3c1.8-0.6,3-1.3,3.4-2.2L562.2,494.4" />
			<path class="st7" d="M558.2,492.8c-1.3,2.1-2.5,2.5-3.7,3.4l-0.1,0.1l0.1,0.1c0.9,1.9,2.5,3.5,4.6,4.9l0.2-0.3
			c-2-1.4-3.5-2.9-4.4-4.7c1.1-0.8,2.3-1.3,3.6-3.4L558.2,492.8" />
			<path class="st7" d="M567.2,494.5c-0.9,0.7-1.9,1.4-3,2l-0.1,0.1l0.1,0.1c0.6,1.4,2.1,2.2,3.5,3l0.2-0.3c-1.3-0.8-2.7-1.6-3.3-2.8
			c1-0.6,2-1.2,2.9-1.9L567.2,494.5" />
			<path class="st7" d="M570.1,494.6c-0.2,0.3-0.8,0.9-1.7,1.8l-0.1,0.1v0.1c0.2,0.7,0.7,1.3,2.1,1.8l0.1-0.3
			c-1.2-0.4-1.7-0.9-1.8-1.5c0.8-0.8,1.4-1.3,1.6-1.7L570.1,494.6" />
		</g>
		<g class="leaf">
			<path class="st6" d="M552,560.7c3.2-2.7,2.1-6.2,0.6-8.6c-2.4-4-8.4-6.9-13-5.6c-7.4,2.1-16,12.6-32.7,10.9
			c10.3,8.9,23.2,17.4,36.6,16.6c4.7-0.3,11-2.8,12.1-7.3C556.3,564.4,553.9,562.3,552,560.7" />
			<path class="st7" d="M572.3,556.9c-20.7,4.7-39.2,4-59.2,1.2c20.5,1.7,39.5,2.5,60-2.6L572.3,556.9" />
			<path class="st7" d="M537.9,567.9l0.4,0.7c3.8-2.1,6.8-4.8,8.7-8.3l0.2-0.4l-0.4-0.1c-4.2-1.3-6.6-3-7.5-4.9l-0.7,0.3
			c1,2.1,3.5,3.8,7.5,5.1C544.2,563.4,541.5,565.9,537.9,567.9" />
			<path class="st7" d="M545.8,570.3l0.5,0.6c4.5-3.3,8.1-7,10-11.4l0.1-0.3l-0.2-0.2c-2.7-2.1-5.1-2.9-8-7.9l-0.7,0.4
			c2.9,4.9,5.5,6.1,8,8C553.5,563.6,550.1,567.1,545.8,570.3" />
			<path class="st7" d="M527.2,566.5l0.4,0.6c3-2,6.3-3.8,7.6-7l0.1-0.3l-0.3-0.2c-2.4-1.4-4.6-2.9-6.6-4.7l-0.5,0.6
			c1.9,1.7,4.1,3.1,6.4,4.5C533.1,562.8,530.1,564.6,527.2,566.5" />
			<path class="st7" d="M520.9,563.1l0.3,0.7c3-1.1,4.2-2.6,4.6-4.2l0.1-0.2l-0.2-0.2c-1.9-1.9-3.1-3.3-3.6-4.1l-0.7,0.4
			c0.5,0.9,1.7,2.2,3.5,4C524.5,560.9,523.6,562.1,520.9,563.1" />
		</g>
		<g class="leaf">
			<path class="st6" d="M424.9,416.6c0.4-2.4-1.5-3.6-3.1-4.1c-2.6-0.8-6.4,0.2-7.9,2.5c-2.4,3.8-2.1,11.8-10.2,17.6
			c8.1,0,17.1-1.2,22.7-6.8c2-2,3.8-5.5,2.5-8C428.2,416.7,426.4,416.6,424.9,416.6" />
			<path class="st7" d="M429.6,411.2c-6.4,8.9-13.8,14.9-22.5,20.6c8.5-6.3,16.1-12.5,22.3-21.4L429.6,411.2" />
			<path class="st7" d="M420.9,420.9l-0.2,0.1c-2.1,0.9-3.6,1.1-4.6,0.6l-0.2,0.4c1.1,0.5,2.7,0.2,4.6-0.6c0.4,1.9,0.2,3.9-0.5,5.8
			l0.4,0.1c0.7-2.1,1-4.2,0.5-6.2L420.9,420.9" />
			<path class="st7" d="M418.2,417.2l-0.1,0.4c2.8,1,4.2,0.5,5.8,0.4c0.7,2.3,0.6,4.8,0,7.6l0.4,0.1c0.6-2.8,0.7-5.5-0.1-7.9v-0.1
			H424C422.3,417.6,421.1,418.1,418.2,417.2" />
			<path class="st7" d="M416.3,424.9h-0.2c-1.4,0.3-2.8,0.4-4.1,0.4v0.4c1.3,0,2.6-0.1,4-0.4c0.4,1.5-0.1,3.2-0.5,5l0.4,0.1
			c0.5-1.8,1.1-3.6,0.5-5.3" />
			<path class="st7" d="M409.6,427.7l-0.1,0.4c0.5,0.2,1.4,0.3,2.7,0.4c0.3,0.6,0.4,1.4-0.3,2.7l0.4,0.2c0.8-1.4,0.7-2.4,0.3-3.2
			l-0.1-0.1h-0.1C411,427.9,410,427.8,409.6,427.7" />
		</g>
		<g class="leaf">
			<path class="st6" d="M398.5,522.2c0.3-3.4-2.9-4.8-5.5-5.3c-4.3-0.8-10.2,1.1-12.2,4.5C377.4,527,379,538,367,547
			c12.8-1,27-3.8,35.2-12.2c2.9-3,5.2-8.1,2.8-11.4C403.8,521.8,400.8,522,398.5,522.2" />
			<path class="st7" d="M405.2,514.1c-8.9,13.1-19.8,22.3-32.8,31.3c12.7-9.8,23.9-19.2,32.5-32.4L405.2,514.1" />
			<path class="st7" d="M392.7,528.5l-0.3,0.2c-3.2,1.5-5.5,1.9-7.2,1.4l-0.2,0.5c1.8,0.5,4.3,0.1,7.3-1.3c0.9,2.6,0.8,5.3,0,8.1
			l0.6,0.1c0.9-3,1-5.9-0.1-8.7L392.7,528.5" />
			<path class="st7" d="M397.6,523.5h-0.2c-2.8,0.3-4.7,1.2-9.4,0.2l-0.1,0.5c4.6,1,6.7,0.2,9.3-0.2c1.4,3.1,1.6,6.6,1.1,10.4
			l0.6,0.1C399.4,530.5,399.3,526.8,397.6,523.5L397.6,523.5" />
			<path class="st7" d="M386,534.7l-0.3,0.1c-2.2,0.5-4.4,0.9-6.5,1.1l0.1,0.5c2.1-0.2,4.2-0.5,6.3-1.1c0.9,2,0.3,4.4-0.2,6.9
			l0.6,0.1c0.5-2.5,1.3-5.2,0.1-7.4L386,534.7" />
			<path class="st7" d="M375.7,539.3l-0.1,0.5c0.8,0.2,2.3,0.2,4.4,0.2c0.6,0.8,0.8,1.9-0.2,3.8l0.6,0.2c1-2.1,0.8-3.5,0.1-4.4
			l-0.1-0.1h-0.2C377.9,539.5,376.4,539.5,375.7,539.3" />
		</g>
		<g class="leaf">
			<path class="st6" d="M613.2,439.7c0.2-4-2.6-5.6-5-6.2c-3.9-1-9.3,1.2-11.2,5.2c-3,6.5-1.5,19.4-12.5,29.8
			c11.7-1.2,24.6-4.5,32-14.2c2.6-3.4,4.8-9.4,2.6-13.2C618,439.3,615.3,439.5,613.2,439.7" />
			<path class="st7" d="M619.3,430.3c-8.1,15.2-18.1,26-29.9,36.5c11.5-11.4,21.7-22.4,29.6-37.7L619.3,430.3" />
			<path class="st7" d="M607.9,447.1l-0.3,0.2c-2.9,1.8-5,2.2-6.6,1.7l-0.2,0.6c1.7,0.6,3.9,0.1,6.7-1.6c0.8,3,0.8,6.1,0,9.4l0.6,0.2
			c0.8-3.5,0.9-6.9-0.1-10.1L607.9,447.1" />
			<path class="st7" d="M612.3,441.3h-0.2c-2.6,0.4-4.3,1.4-8.5,0.2l-0.1,0.6c4.2,1.1,6.1,0.2,8.5-0.2c1.3,3.6,1.5,7.7,1,12.1
			l0.6,0.1c0.5-4.6,0.3-8.9-1.1-12.7L612.3,441.3" />
			<path class="st7" d="M601.8,454.3l-0.2,0.1c-2,0.6-4,1.1-6,1.3l0.1,0.6c1.9-0.2,3.8-0.6,5.8-1.2c0.8,2.3,0.3,5.2-0.1,8.1l0.6,0.1
			c0.5-3,1.1-6,0.1-8.7L601.8,454.3" />
			<path class="st7" d="M592.4,459.7l-0.1,0.6c0.8,0.2,2.1,0.2,4,0.2c0.5,1,0.7,2.2-0.2,4.5l0.5,0.3c0.9-2.5,0.7-4,0.1-5.2l-0.1-0.2
			h-0.2C594.5,460,593.1,459.9,592.4,459.7" />
		</g>
		<g class="leaf">
			<path class="st6" d="M479.3,433.8c-1.7-1.3-1.1-3-0.3-4.2c1.3-2,4.4-3.4,6.8-2.7c3.8,1,8.3,6.2,17.1,5.4
			c-5.4,4.4-12.1,8.5-19.1,8.1c-2.5-0.1-5.8-1.4-6.3-3.6C477,435.6,478.3,434.6,479.3,433.8" />
			<path class="st7" d="M472.9,433c9.5,2,17.9,1.7,27.1,0.5c-9.4,0.7-18,1.1-27.4-1.1L472.9,433" />
			<path class="st7" d="M488,432.1c-0.4,0.8-1.5,1.5-3.4,2.1l-0.2,0.1l0.1,0.2c0.9,1.5,2.3,2.7,4,3.6l0.2-0.3
			c-1.6-0.8-2.9-1.9-3.7-3.3c1.8-0.6,3-1.3,3.4-2.2L488,432.1" />
			<path class="st7" d="M484,430.5c-1.3,2.1-2.5,2.5-3.7,3.4l-0.1,0.1l0.1,0.1c0.9,1.9,2.5,3.5,4.6,4.9l0.2-0.3
			c-2-1.4-3.5-2.9-4.4-4.7c1.1-0.8,2.3-1.3,3.6-3.4L484,430.5" />
			<path class="st7" d="M493,432.2c-0.9,0.7-1.9,1.4-3,2l-0.1,0.1l0.1,0.1c0.6,1.4,2.1,2.2,3.5,3l0.2-0.3c-1.3-0.8-2.7-1.6-3.3-2.8
			c1-0.6,2-1.2,2.9-1.9L493,432.2" />
			<path class="st7" d="M495.9,432.3c-0.2,0.3-0.8,0.9-1.7,1.8l-0.1,0.1v0.1c0.2,0.7,0.7,1.3,2.1,1.8l0.1-0.3
			c-1.2-0.4-1.7-0.9-1.8-1.5c0.8-0.8,1.4-1.3,1.6-1.7L495.9,432.3" />
		</g>
		<g class="leaf">
			<path class="st6" d="M648,552.5c-2.4-1.8-1.6-4.2-0.5-5.8c1.8-2.7,6.2-4.6,9.5-3.8c5.4,1.4,11.7,8.5,24,7.4
			c-7.6,6-17,11.7-26.8,11.2c-3.5-0.2-8.1-1.9-8.9-4.9C644.8,555,646.6,553.6,648,552.5" />
			<path class="st7" d="M639.1,551.4c13.3,2.8,25.2,2.4,38,0.7c-13.2,1-25.3,1.4-38.5-1.5L639.1,551.4" />
			<path class="st7" d="M660.3,550.1c-0.6,1.1-2.1,2.1-4.8,2.9l-0.3,0.1l0.1,0.2c1.2,2.1,3.2,3.7,5.6,4.9l0.2-0.4
			c-2.3-1.2-4-2.6-5.2-4.6c2.5-0.8,4.1-1.8,4.8-3L660.3,550.1" />
			<path class="st7" d="M654.6,548c-1.9,3-3.4,3.4-5.2,4.7l-0.1,0.1l0.1,0.2c1.2,2.6,3.6,4.8,6.4,6.8l0.3-0.4c-2.8-1.9-5-4-6.2-6.4
			c1.6-1.1,3.2-1.8,5.1-4.7L654.6,548" />
			<path class="st7" d="M667.2,550.3c-1.3,1-2.7,1.9-4.2,2.8l-0.2,0.1l0.1,0.2c0.9,1.9,3,3,4.9,4.1l0.3-0.4c-1.9-1.1-3.8-2.2-4.6-3.8
			c1.5-0.8,2.8-1.7,4.1-2.7L667.2,550.3" />
			<path class="st7" d="M671.3,550.4c-0.3,0.5-1.1,1.3-2.3,2.4l-0.1,0.1v0.1c0.3,0.9,1,1.8,2.9,2.5l0.2-0.4c-1.7-0.6-2.3-1.3-2.6-2.1
			c1.1-1.1,1.9-1.9,2.3-2.4L671.3,550.4" />
		</g>
		<g class="leaf">
			<path class="st6" d="M459.9,465.6c0.4-2.4-1.5-3.6-3.1-4.1c-2.6-0.8-6.4,0.2-7.9,2.5c-2.4,3.8-2.1,11.8-10.2,17.6
			c8.1,0,17.1-1.2,22.7-6.8c2-2,3.8-5.5,2.5-8C463.2,465.6,461.4,465.6,459.9,465.6" />
			<path class="st7" d="M464.6,460.1c-6.4,8.9-13.8,14.9-22.5,20.6c8.5-6.3,16.1-12.5,22.3-21.4L464.6,460.1" />
			<path class="st7" d="M455.9,469.8l-0.2,0.1c-2.1,0.9-3.6,1.1-4.6,0.6l-0.2,0.4c1.1,0.5,2.7,0.2,4.6-0.6c0.4,1.9,0.2,3.9-0.5,5.8
			l0.4,0.1c0.7-2.1,1-4.2,0.5-6.2L455.9,469.8" />
			<path class="st7" d="M453.2,466.1l-0.1,0.4c2.8,1,4.2,0.5,5.8,0.4c0.7,2.3,0.6,4.8,0,7.6l0.4,0.1c0.6-2.8,0.7-5.5-0.1-7.9v-0.1
			H459C457.3,466.6,456.1,467,453.2,466.1" />
			<path class="st7" d="M451.3,473.9h-0.2c-1.4,0.3-2.8,0.4-4.1,0.4v0.4c1.3,0,2.6-0.1,4-0.4c0.4,1.5-0.1,3.2-0.5,5l0.4,0.1
			c0.5-1.8,1.1-3.6,0.5-5.3" />
			<path class="st7" d="M444.6,476.6l-0.1,0.4c0.5,0.2,1.4,0.3,2.7,0.4c0.3,0.6,0.4,1.4-0.3,2.7l0.4,0.2c0.8-1.4,0.7-2.4,0.3-3.2
			l-0.1-0.1h-0.1C446,476.9,445,476.7,444.6,476.6" />
		</g>
		<g class="leaf">
			<path class="st6" d="M531,345.7c0.3-3.4-2.9-4.8-5.5-5.3c-4.3-0.8-10.2,1.1-12.2,4.5c-3.3,5.6-1.7,16.6-13.7,25.6
			c12.8-1,27-3.8,35.2-12.2c2.9-3,5.2-8.1,2.8-11.4C536.3,345.3,533.3,345.5,531,345.7" />
			<path class="st7" d="M537.7,337.6c-8.9,13.1-19.8,22.3-32.8,31.3c12.7-9.8,23.9-19.2,32.5-32.4L537.7,337.6" />
			<path class="st7" d="M525.2,352l-0.3,0.2c-3.2,1.5-5.5,1.9-7.2,1.4l-0.2,0.5c1.8,0.5,4.3,0.1,7.3-1.3c0.9,2.6,0.8,5.3,0,8.1
			l0.6,0.1c0.9-3,1-5.9-0.1-8.7L525.2,352" />
			<path class="st7" d="M530,347h-0.2c-2.8,0.3-4.7,1.2-9.4,0.2l-0.1,0.5c4.6,1,6.7,0.2,9.3-0.2c1.4,3.1,1.6,6.6,1.1,10.4l0.6,0.1
			c0.5-4,0.4-7.7-1.2-10.9L530,347" />
			<path class="st7" d="M518.5,358.2l-0.3,0.1c-2.2,0.5-4.4,0.9-6.5,1.1l0.1,0.5c2.1-0.2,4.2-0.5,6.3-1.1c0.9,2,0.3,4.4-0.2,6.9
			l0.6,0.1c0.5-2.5,1.3-5.2,0.1-7.4L518.5,358.2" />
			<path class="st7" d="M508.2,362.8l-0.1,0.5c0.8,0.2,2.3,0.2,4.4,0.2c0.6,0.8,0.8,1.9-0.2,3.8l0.6,0.2c1-2.1,0.8-3.5,0.1-4.4
			l-0.1-0.1h-0.2C510.4,363.1,508.9,363,508.2,362.8" />
		</g>
		<g class="leaf">
			<path class="st6" d="M794.4,498.1c1.3-1.7,3-1.1,4.2-0.3c2,1.3,3.4,4.4,2.7,6.8c-1,3.8-6.2,8.3-5.4,17.1
			c-4.4-5.4-8.5-12.1-8.1-19.1c0.1-2.5,1.4-5.8,3.6-6.3C792.6,495.9,793.6,497.1,794.4,498.1" />
			<path class="st7" d="M795.2,491.8c-2,9.5-1.7,17.9-0.5,27.1c-0.7-9.4-1.1-18,1.1-27.4L795.2,491.8" />
			<path class="st7" d="M796.1,506.9c-0.8-0.4-1.5-1.5-2.1-3.4l-0.1-0.2l-0.2,0.1c-1.5,0.9-2.7,2.3-3.6,4l0.3,0.2
			c0.8-1.6,1.9-2.9,3.3-3.7c0.6,1.8,1.3,3,2.2,3.4L796.1,506.9" />
			<path class="st7" d="M797.7,502.9c-2.1-1.3-2.5-2.5-3.4-3.7l-0.1-0.1l-0.1,0.1c-1.9,0.9-3.5,2.5-4.9,4.6l0.3,0.2
			c1.4-2,2.9-3.5,4.7-4.4c0.8,1.1,1.3,2.3,3.4,3.6L797.7,502.9" />
			<path class="st7" d="M796,511.8c-0.7-0.9-1.4-1.9-2-3l-0.1-0.1l-0.1,0.1c-1.4,0.6-2.2,2.1-3,3.5l0.3,0.2c0.8-1.3,1.6-2.7,2.8-3.3
			c0.6,1,1.2,2,1.9,2.9L796,511.8" />
			<path class="st7" d="M795.9,514.8c-0.3-0.2-0.9-0.8-1.8-1.7L794,513h-0.1c-0.7,0.2-1.3,0.7-1.8,2.1l0.3,0.1
			c0.4-1.2,0.9-1.7,1.5-1.8c0.8,0.8,1.3,1.4,1.7,1.6L795.9,514.8" />
		</g>
		<g class="leaf">
			<path class="st6" d="M439,365.7c0.3-3.4-2.9-4.8-5.5-5.3c-4.3-0.8-10.2,1.1-12.2,4.5c-3.3,5.6-1.7,16.6-13.7,25.6
			c12.8-1,27-3.8,35.2-12.2c2.9-3,5.2-8.1,2.8-11.4C444.3,365.3,441.3,365.5,439,365.7" />
			<path class="st7" d="M445.7,357.6c-8.9,13.1-19.8,22.3-32.8,31.3c12.7-9.8,23.9-19.2,32.5-32.4L445.7,357.6" />
			<path class="st7" d="M433.2,372l-0.3,0.2c-3.2,1.5-5.5,1.9-7.2,1.4l-0.2,0.5c1.8,0.5,4.3,0.1,7.3-1.3c0.9,2.6,0.8,5.3,0,8.1
			l0.6,0.1c0.9-3,1-5.9-0.1-8.7L433.2,372" />
			<path class="st7" d="M438,367h-0.2c-2.8,0.3-4.7,1.2-9.4,0.2l-0.1,0.5c4.6,1,6.7,0.2,9.3-0.2c1.4,3.1,1.6,6.6,1.1,10.4l0.6,0.1
			c0.5-4,0.4-7.7-1.2-10.9L438,367" />
			<path class="st7" d="M426.5,378.2l-0.3,0.1c-2.2,0.5-4.4,0.9-6.5,1.1l0.1,0.5c2.1-0.2,4.2-0.5,6.3-1.1c0.9,2,0.3,4.4-0.2,6.9
			l0.6,0.1c0.5-2.5,1.3-5.2,0.1-7.4L426.5,378.2" />
			<path class="st7" d="M416.2,382.8l-0.1,0.5c0.8,0.2,2.3,0.2,4.4,0.2c0.6,0.8,0.8,1.9-0.2,3.8l0.6,0.2c1-2.1,0.8-3.5,0.1-4.4
			l-0.1-0.1h-0.2C418.4,383.1,416.9,383,416.2,382.8" />
		</g>
		<g class="leaf">
			<path class="st6" d="M303.8,485.7c2.8,0.3,4-1.9,4.5-3.7c0.8-3-0.7-7.1-3.4-8.6c-4.5-2.4-13.7-1.6-20.8-10.1
			c0.5,8.9,2.6,18.9,9.3,24.7c2.4,2.1,6.6,3.8,9.3,2.2C304.1,489.4,304,487.3,303.8,485.7" />
			<path class="st7" d="M310.4,490.5c-10.6-6.5-18-14.3-25.1-23.6c7.8,9,15.3,17,26,23.4L310.4,490.5" />
			<path class="st7" d="M297.2,476.1c-0.5,1.3-0.1,3,0.9,5.1c-2.1,0.6-4.4,0.5-6.7-0.2l-0.1,0.4c2.4,0.7,4.8,0.8,7.1,0.1l0.3-0.1
			l-0.1-0.2c-1.2-2.3-1.4-3.9-1-5.1L297.2,476.1" />
			<path class="st7" d="M302.4,478.2c-0.9,3.2-0.3,4.7-0.1,6.5c-2.5,0.9-5.5,1-8.6,0.5l-0.1,0.4c3.3,0.5,6.3,0.4,9-0.6l0.2-0.1v-0.2
			c-0.2-2-0.9-3.3,0-6.5L302.4,478.2" />
			<path class="st7" d="M293,471.9h-0.5c0.1,1.5,0.4,2.9,0.7,4.4c-1.7,0.6-3.7,0.1-5.7-0.3l-0.1,0.4c2.1,0.4,4.2,1,6.1,0.2l0.2-0.1
			v-0.2C293.4,475,293.1,473.5,293,471.9" />
			<path class="st7" d="M289.8,469.3c-0.2,0.6-0.2,1.6-0.2,3.1c-0.7,0.4-1.6,0.5-3.1-0.2l-0.2,0.4c1.7,0.8,2.8,0.6,3.7,0.2l0.1-0.1
			v-0.1c0-1.6,0.1-2.6,0.2-3.1L289.8,469.3" />
		</g>
	</g>
	<path class="st4" d="M1336.3,643.7c-0.2,0-0.3,0-0.5,0.1s-0.3,0.2-0.3,0.4c-9.8,33.4-20.6,51.2-31.6,68c-0.2,0.3-0.1,0.7,0.2,0.9
	c0.1,0.1,0.3,0.1,0.5,0.1s0.3-0.1,0.4-0.3c11-16.8,22-34.8,31.8-68.3C1336.9,644.2,1336.7,643.8,1336.3,643.7" />
	<path class="st4" d="M1278.9,620.8c-0.2,0-0.3,0.2-0.4,0.3c-0.1,0.2-0.1,0.3-0.1,0.5c10,33.9,18.2,49.1,27.1,70.7
	c0.1,0.2,0.2,0.3,0.3,0.4c0.2,0.1,0.3,0.1,0.5,0c0.3-0.1,0.5-0.5,0.4-0.8c-8.9-21.8-17.1-36.8-27-70.6
	C1279.6,620.8,1279.2,620.7,1278.9,620.8" />
	<g class="floor-3">
		<path class="st5" d="M839,541.5c114.3-2.2,243.3,11.3,340.3,35.7c66.5,17.2,130.6,42.6,186.7,77V768H153
		c18.1-38.3,73.9-76.3,122.5-102.3c78.3-41.9,171.7-60.5,261.4-80.7C635.6,562.9,736.8,543.4,839,541.5" />
		<path class="st6"
			d="M602.7,653.4c0,1.7-8,3.1-18,3.1c-9.9,0-18-1.4-18-3.1s8-3.1,18-3.1C594.6,650.3,602.7,651.7,602.7,653.4" />
		<path class="st0" d="M946.5,582.1c0,1.7-7.8,3.1-17.4,3.1c-9.6,0-17.4-1.4-17.4-3.1c0-1.7,7.8-3.1,17.4-3.1
		S946.5,580.4,946.5,582.1" />
		<path class="st0"
			d="M638.1,613.2c0,0.8-3.8,1.5-8.5,1.5s-8.5-0.7-8.5-1.5s3.8-1.5,8.5-1.5S638.1,612.4,638.1,613.2" />
		<path class="st4" d="M856.4,594.3c0,0.7-0.9,1.3-2.5,1.8s-3.8,0.7-6,0.7c-2.3,0-4.4-0.3-6-0.7c-1.6-0.5-2.5-1.1-2.5-1.8
		c0-1.4,3.8-2.5,8.5-2.5C852.5,591.8,856.4,592.9,856.4,594.3" />
		<path class="st0" d="M1046.2,584.5c0,2.5-3.8,4.5-8.5,4.5c-2.3,0-4.4-0.5-6-1.3s-2.5-2-2.5-3.2s0.9-2.3,2.5-3.2
		c1.6-0.8,3.8-1.3,6-1.3C1042.4,580,1046.2,582.1,1046.2,584.5" />
		<path class="st0" d="M1151.5,594.1c0,0.9-3.8,1.7-8.5,1.7s-8.5-0.8-8.5-1.7s3.8-1.7,8.5-1.7
		C1147.7,592.4,1151.5,593.1,1151.5,594.1" />
		<path class="st0" d="M1029.9,655.5c0,1.4-3.8,2.5-8.5,2.5c-4.7,0-8.5-1.1-8.5-2.5c0-0.7,0.9-1.3,2.5-1.8s3.8-0.7,6-0.7
		c2.3,0,4.4,0.3,6,0.7C1029,654.2,1029.9,654.9,1029.9,655.5" />
	</g>
	<g class="plants">
		<g>
			<g>
				<path class="st4" d="M725.3,610.1c54.7-3,36.4,107.2,36.4,107.2s33.8-117.8,67.6-103.3c33.5,14.4-51.4,108.4-51.4,108.4
				s86.2-88.5,86.2-43.6c0,32.5-30.6,70.5-65.1,89.1H665.1c-53.4-18.4-104.6-54.2-96.2-70.6c11.6-22.5,135.1,32.9,135.1,32.9
				s-109-63.3-63.8-87.1c38.5-20.3,101,74.1,101,74.1C734.9,674.4,665.6,611.5,725.3,610.1" />
				<path class="st10" d="M309.7,680.2c16.5-0.4,36.2,29.4,36.2,29.4s-15.6-26.4-3.4-23.9s25.2,41.5,25.2,41.5s-1.4-24.5,8.2-13.8
				s9.5,35.2,9.5,35.2s0-12.6,8.2-19.5s8.8,39,8.8,39l-0.1,0.4h-75c-9.1-6.2-18.4-13.2-17.4-15.5c2-4.4,31.3,6.9,31.3,6.9
				s-57.1-25.2-35.4-25.8c16.7-0.5,27.4,3.5,31.5,5.4c-8.2-4.2-40.5-21.4-32.1-28c8.1-6.4,24.9,5.7,29.8,9.5
				c0.7,0.5,1.4,1.1,1.4,1.1s-0.5-0.5-1.4-1.1c-6.9-5.5-43.9-35.8-28.5-40.4C307.6,680.4,308.6,680.2,309.7,680.2z M337.3,739.5
				c1.2,0.6,1.9,0.9,1.9,0.9S338.5,740.1,337.3,739.5" />
				<path class="st4" d="M1010.3,684.4c-0.2,0-0.3,0-0.5,0.1c-0.1,0.1-0.2,0.2-0.2,0.4c-2.2,27.1-6.8,53.5-11,80.1
				c0,0.1,0,0.3,0.1,0.4c0.1,0.1,0.3,0.2,0.4,0.2c0.2,0,0.3,0,0.5-0.1c0.1-0.1,0.2-0.2,0.2-0.3c4.2-26.5,8.8-52.9,11-80.1
				c0-0.1,0-0.3-0.2-0.4C1010.6,684.5,1010.5,684.4,1010.3,684.4" />
				<path class="st4" d="M991.8,736.6c-0.4,0.1-0.6,0.3-0.5,0.6c1.8,6.5,4.5,12.6,8.5,18.1c0.2,0.2,0.6,0.3,0.9,0.2
				c0.2-0.1,0.3-0.2,0.3-0.3s0-0.3-0.1-0.4c-3.9-5.4-6.6-11.3-8.4-17.8C992.5,736.7,992.1,736.5,991.8,736.6" />
				<path class="st4" d="M1023.7,722.5c-0.3-0.2-0.7-0.1-0.9,0.1c-5.1,6.2-11.7,11.7-19.9,16.5c-0.1,0.1-0.2,0.2-0.3,0.3
				c0,0.1,0,0.3,0.1,0.4c0.1,0.1,0.3,0.2,0.4,0.2c0.2,0,0.3,0,0.5-0.1c8.2-4.9,15-10.4,20.2-16.7
				C1024.1,723,1024,722.6,1023.7,722.5" />
				<path class="st4" d="M991.8,711.8c-0.2,0.1-0.3,0.2-0.4,0.3c-0.1,0.1-0.1,0.3,0,0.4c3,6.2,5.6,12.6,12,18.2
				c0.1,0.1,0.3,0.2,0.5,0.2s0.3,0,0.5-0.1c0.3-0.2,0.3-0.5,0-0.7c-6.2-5.4-8.8-11.7-11.8-17.9c-0.1-0.1-0.2-0.2-0.3-0.3
				C992.2,711.8,992,711.8,991.8,711.8" />
				<path class="st4" d="M1025.7,702.5c-0.2,0-0.3,0.1-0.4,0.2c-3.7,4.6-8.7,9-18.4,12.9c-0.3,0.1-0.5,0.4-0.3,0.7
				c0.1,0.1,0.2,0.2,0.4,0.3c0.2,0,0.3,0,0.5,0c9.9-4,15.1-8.5,18.9-13.2c0.2-0.2,0.1-0.6-0.2-0.7
				C1026,702.5,1025.8,702.5,1025.7,702.5" />
				<path class="st4" d="M996.2,692.1c-0.3,0.1-0.5,0.4-0.4,0.7c2.6,5.5,7.3,10.9,11.1,15.1c0.2,0.2,0.6,0.3,0.9,0.1
				c0.1-0.1,0.2-0.2,0.3-0.3c0-0.1,0-0.3-0.1-0.4c-3.8-4.2-8.4-9.6-11-14.9c-0.1-0.1-0.2-0.2-0.3-0.3
				C996.6,692,996.4,692,996.2,692.1" />
				<path class="st4"
					d="M309.4,683.6c-0.1,0.1-0.2,0.2-0.3,0.3c0,0.1,0,0.3,0.1,0.4c24,26.9,51.5,51.8,70,81.7
				c0.2,0.3,0.6,0.4,0.9,0.2c0.3-0.1,0.5-0.4,0.3-0.7c-18.6-30.1-46.1-55-70.1-81.8C310.1,683.5,309.7,683.4,309.4,683.6" />
				<path class="st4" d="M375.4,731.4c-0.4,0-0.6,0.3-0.6,0.6l1.9,30c0,0.3,0.3,0.5,0.7,0.5c0.2,0,0.3-0.1,0.5-0.2
				c0.1-0.1,0.2-0.2,0.2-0.4l-1.9-30c0-0.1-0.1-0.3-0.2-0.4C375.7,731.5,375.6,731.4,375.4,731.4" />
				<path class="st4" d="M349.6,697.6c-0.3,0.1-0.5,0.4-0.4,0.7c7.2,13.9,10.1,27.6,11.8,41.2c0,0.3,0.4,0.5,0.7,0.5
				c0.4,0,0.6-0.3,0.6-0.6c-1.6-13.7-4.6-27.4-11.9-41.5C350.3,697.6,349.9,697.5,349.6,697.6" />
				<path class="st4" d="M318.3,739.9c-0.3-0.1-0.7,0-0.9,0.3s0,0.6,0.3,0.7c17.9,6.1,35.7,11.5,53.7,13.5c0.4,0,0.7-0.2,0.7-0.4
				c0.1-0.3-0.2-0.6-0.6-0.6C353.9,751.3,336.1,746,318.3,739.9" />
				<path class="st4" d="M312.1,715.5c-0.1-0.1-0.3-0.1-0.5-0.1s-0.3,0.1-0.4,0.2c-0.2,0.2-0.1,0.6,0.2,0.7
				c13.8,6.9,27.6,13.9,42.4,16.1c0.2,0,0.3,0,0.5-0.1c0.1-0.1,0.2-0.2,0.3-0.3c0-0.1,0-0.3-0.1-0.4c-0.1-0.1-0.3-0.2-0.4-0.2
				C339.6,729.3,325.9,722.4,312.1,715.5" />
				<path class="st7"
					d="M821.1,631.6c-32.5,38.8-50.4,85-69.8,130.2l1.2,0.3c19.4-45.2,37.2-91.3,69.6-129.9L821.1,631.6" />
				<path class="st7" d="M845,694.4l-86.2,70.9l0.9,0.7l86.2-70.9L845,694.4" />
				<path class="st7"
					d="M655.2,660l-0.9,0.7c33.3,27.4,62.3,61.7,87,102.9l1.2-0.5C717.7,721.9,688.6,687.6,655.2,660" />
				<path class="st7"
					d="M585.4,703.1l-0.7,0.9c45.6,24.5,92.8,47,148.7,59.3l0.3-1C678.1,750,630.9,727.5,585.4,703.1" />
				<path class="st7"
					d="M726.2,621.7l-1.3,0.3c17.2,46.4,31.8,92.9,20.1,141.8l1.3,0.2C758.1,714.8,743.4,668.1,726.2,621.7" />
			</g>
			<g>
				<g>
					<path class="st6" d="M0,597.6v170.9h274.4c-0.2-0.3-0.5-0.6-0.7-0.8c-7.8-8.3-43.4-8.2-61-19.7c-20.7-13.5-26-42.2-47.3-54.9
					c-17.8-10.6-44-3.5-61.6-14.3c-24.6-15-29.4-49-53.2-65C36.2,604.2,20.1,598.8,0,597.6" />
					<path class="st6" d="M1365,546v220.7H991.5c17-33.2,110-34.6,129.7-57.2c15.9-18.2,35.1-45.7,60.3-60.2
					c23.5-13.5,57-7.5,79.8-22.1c24.2-15.5,29.4-49,53.2-65C1328.8,552.6,1344.8,547.2,1365,546" />
					<path class="st6" d="M114.1,656.3c-1.3-0.4-2.9,0.4-4.2,2.5c-2.4,4-3.6,12.9-7.5,12.5s-10.5-10.1-10.7-7.6s6,17.1,5.3,20.1
					c-0.7,2.9-8.4-5.9-8.2-2.9c0.2,3,8.2,17.9,8.1,21s-8.2-5.6-9-3.9c-0.8,1.8,5.9,14,6,16.6s-6.5-4.4-7.4-3.8
					c-0.6,0.3,0.9,3.5,2.7,6.8l21.6,6.3c4.6-5,9.1-13.2,7.6-14c-1.7-1-10.9,7.3-11,6c-0.2-1.3,8.7-12,10.1-15.9s-4.6-0.8-6.9,0.1
					c-2.3,0.9-0.8-0.4,3.7-4.8c4.5-4.5,12-12.1,11.8-13.9s-8.2,2.3-8.4-0.1c-0.2-2.4,7.4-11.4,7.3-13.1c-0.1-1.7-7.8,3.9-10,3.2
					c-2.1-0.7,1.4-7.7,1.3-11.6C116,657.7,115.2,656.6,114.1,656.3" />
					<path class="st3" d="M189.5,556.7c-0.9,0-1.8,0.1-2.7,0.3c-31.1,7.2-27.2,125.2-27.2,125.2s-11.7-60.8-36.3-50.1
					c-21.8,9.5,15.3,76.8,24,92.1c-5-7.9-19.9-26.2-44.8-15.8c-19.6,8.2,13.2,38.2,40.2,59.3H294c11.7-14.3,20.2-29.6,9.5-35.4
					c-22-11.9-54.5,12.5-54.5,12.5s44.7-52.7,33.7-64.4c-11.1-11.8-71.3,31.6-71.3,31.6s63.5-70.4,32.4-68S188,667.8,188,667.8
					S216,557.1,189.5,556.7" />
					<path class="st4" d="M1090.6,592.9c-0.5,0-1,0.1-1.6,0.3c-17.9,6-15.7,104.2-15.7,104.2s-6.7-50.6-20.9-41.7
					c-12.6,7.9,8.8,63.9,13.8,76.6c-2.9-6.5-11.5-21.8-25.8-13.1c-11.3,6.9,7.6,31.8,23.1,49.3h87.1c6.7-11.9,11.7-24.7,5.5-29.5
					c-12.7-9.9-31.4,10.4-31.4,10.4s25.8-43.9,19.4-53.6c-6.4-9.8-41.1,26.3-41.1,26.3s36.6-58.5,18.7-56.6
					c-17.9,2-32.1,19.8-32.1,19.8S1105.9,593.3,1090.6,592.9" />
					<path class="st10" d="M961.3,601.1c-31.4-0.8-69,55.8-69,55.8s29.8-50.1,6.5-45.3s-48,78.7-48,78.7s2.6-46.5-15.6-26.2
					C817,684.3,817,730.8,817,730.8s0-23.8-15.6-37c-15.6-13.1-16.9,73.9-16.9,73.9l0.1,0.8h143.1c17.3-11.7,35.2-25.1,33.1-29.5
					c-3.9-8.3-59.7,13.1-59.7,13.1s108.9-47.7,67.4-48.9c-31.9-0.9-52.3,6.6-60,10.2c15.6-8,77.2-40.6,61.3-53.1
					c-15.4-12.1-47.5,10.8-56.9,18.1c-1.3,1-2.7,2.2-2.7,2.2s1-0.9,2.7-2.2c13.2-10.4,83.8-67.9,54.3-76.5
					C965.4,601.5,963.3,601.1,961.3,601.1z M908.7,713.6c-2.2,1.1-3.5,1.8-3.5,1.8S906.4,714.6,908.7,713.6" />
					<path class="st6" d="M869.1,702.4c1.3,0,2.6,1.2,3.1,3.6c1,4.5-0.8,13.3,3,14c3.9,0.7,13.4-6.7,12.7-4.3
					c-0.6,2.4-11.4,14.7-11.6,17.7c-0.3,3,9.9-3.3,8.8-0.5c-1.2,2.8-13.7,14.8-14.6,17.7c-0.9,3,9.7-3.1,9.8-1.2
					c0.1,1.9-10.2,11.7-11.2,14.2c-0.9,2.5,7.6-2.4,8.4-1.6c0.4,0.5-2,3-4.8,5.7H850c-2.8-6-4.3-15.1-2.6-15.5c1.9-0.5,8,10,8.5,8.8
					c0.6-1.2-4.3-13.9-4.4-18c-0.1-4.1,4.7,0.5,6.6,2c1.9,1.5,0.9-0.1-1.9-5.6c-2.8-5.5-7.5-14.9-6.7-16.5s7.1,4.5,8,2.2
					c1-2.3-3.3-12.9-2.6-14.5s6.2,5.9,8.5,5.8c2.3-0.1,1.2-7.7,2.6-11.4C866.8,703.3,868,702.4,869.1,702.4" />
					<path class="st6" d="M286.9,666.3c-1.6,0-3.3,1.8-3.9,5.6c-1.2,7,1,20.8-3.8,21.9c-4.8,1.1-16.7-10.5-15.9-6.7
					c0.8,3.8,14.2,23,14.6,27.7c0.3,4.7-12.4-5.2-11-0.7c1.5,4.4,17.1,23.1,18.3,27.8c1.2,4.6-12.1-4.8-12.3-1.9
					c-0.2,3,12.8,18.4,14,22.2c1.1,3.9-9.5-3.7-10.4-2.5c-0.6,0.7,2.5,4.8,6,8.9h28.4c3.5-9.4,5.4-23.6,3.2-24.3
					c-2.4-0.8-10,15.6-10.7,13.8s5.4-21.8,5.5-28.2s-5.9,0.8-8.2,3.2c-2.4,2.3-1.1-0.2,2.4-8.8s9.3-23.3,8.3-25.9
					c-1-2.6-8.8,7-10.1,3.5c-1.2-3.5,4.1-20.2,3.3-22.7c-0.8-2.5-7.8,9.2-10.6,9.1c-2.8-0.1-1.5-12-3.3-17.8
					C289.8,667.7,288.3,666.3,286.9,666.3" />
					<path class="st6" d="M453.2,581.3c-1.4,0-2.9,0.2-4.5,0.7c-40.2,11.9-7.8,144.3-7.8,144.3s-40.2-128.8-66.1-114.5
					s54.5,130,54.5,130s-36.3-48.9-66.1-41.7c-20.6,4.9,18.1,43.9,44.1,67.6h209.4c-10.9-11.6-23.6-23.6-31.7-27.1
					c-16.9-7.2-38.9,0-38.9,0s15.6-15.5-1.3-39.3c-16.9-23.8-51.9,32.2-51.9,32.2s53.2-102.5,24.6-95.4
					c-28.5,7.2-45.4,77.5-45.4,77.5S487.6,581.3,453.2,581.3" />
					<path class="st6" d="M1274.6,569.4c1.3-0.4,2.9,0.4,4.2,2.5c2.4,4,3.6,12.9,7.5,12.5s10.5-10.1,10.7-7.6s-6,17.2-5.3,20.1
					c0.7,2.9,8.4-5.9,8.2-2.9c-0.2,3-8.2,17.9-8.1,21s8.2-5.6,9-3.9c0.8,1.8-5.9,14-6,16.6s6.5-4.4,7.4-3.8c0.6,0.3-0.9,3.5-2.7,6.8
					l-21.6,6.3c-4.6-5-9.1-13.2-7.6-14c1.7-1,10.9,7.3,11,6c0.2-1.3-8.7-12-10.1-15.9s4.6-0.8,6.9,0.1c2.3,0.9,0.8-0.4-3.7-4.8
					c-4.5-4.5-12-12.1-11.8-13.9c0.2-1.8,8.2,2.3,8.4-0.1c0.2-2.4-7.4-11.4-7.3-13.1c0.1-1.7,7.8,3.9,10,3.2
					c2.1-0.7-1.4-7.7-1.3-11.6C1272.7,570.9,1273.5,569.7,1274.6,569.4" />
					<path class="st6" d="M1193,621.7c1.3-0.4,2.9,0.4,4.2,2.5c2.4,4,3.6,12.9,7.5,12.5s10.5-10.1,10.7-7.6s-6,17.2-5.3,20.1
					c0.7,2.9,8.4-5.9,8.2-2.9c-0.2,3-8.2,17.9-8.1,21s8.2-5.6,9-3.9c0.8,1.8-5.9,14-6,16.6s6.5-4.4,7.4-3.8c0.6,0.3-0.9,3.5-2.7,6.8
					l-21.6,6.3c-4.6-5-9.1-13.2-7.6-14c1.7-1,10.9,7.3,11,6c0.2-1.3-8.7-12.1-10.1-15.9c-1.4-3.9,4.6-0.8,6.9,0.1
					c2.3,0.9,0.8-0.4-3.7-4.8c-4.5-4.5-12-12.1-11.8-13.9s8.2,2.3,8.4-0.1c0.2-2.4-7.4-11.4-7.3-13.1c0.1-1.7,7.9,3.9,10,3.2
					s-1.4-7.7-1.3-11.6C1191.1,623.2,1191.9,622,1193,621.7" />
					<path class="st6" d="M1150.8,637.7c1.3-0.4,2.9,0.4,4.2,2.5c2.4,4,3.6,12.9,7.5,12.5s10.5-10.1,10.7-7.6s-6,17.2-5.3,20.1
					c0.7,2.9,8.4-5.9,8.2-2.9c-0.2,3-8.2,17.9-8.1,21s8.2-5.6,9-3.9c0.8,1.8-5.9,14-6,16.6s6.5-4.4,7.4-3.8c0.6,0.3-0.9,3.5-2.7,6.8
					l-21.6,6.3c-4.6-5-9.1-13.2-7.6-14c1.7-1,10.9,7.3,11,6c0.2-1.3-8.7-12-10.1-15.9s4.6-0.8,6.9,0.1c2.3,0.9,0.8-0.4-3.7-4.8
					c-4.5-4.5-12-12.1-11.8-13.9c0.2-1.8,8.2,2.3,8.4-0.1c0.2-2.4-7.4-11.4-7.3-13.1c0.1-1.7,7.8,3.9,10,3.2
					c2.1-0.7-1.4-7.7-1.3-11.6C1148.9,639.2,1149.7,638,1150.8,637.7" />
					<path class="st6" d="M30.7,563.5c-1.3-0.4-2.9,0.4-4.2,2.5c-2.4,4-3.6,12.9-7.5,12.5s-10.5-10.1-10.7-7.6s6,17.1,5.3,20.1
					c-0.7,2.9-8.4-5.9-8.2-2.9s8.2,17.9,8.1,21c-0.1,3.1-8.2-5.6-9-3.9c-0.8,1.8,5.9,14,6,16.6c0.1,2.6-6.5-4.4-7.4-3.8
					c-0.6,0.3,0.9,3.5,2.7,6.8l21.6,6.3c4.6-5,9.1-13.2,7.6-14c-1.7-1-10.9,7.3-11,6c-0.2-1.3,8.7-12,10.1-15.9
					c1.4-3.9-4.6-0.8-6.9,0.1c-2.3,0.9-0.8-0.4,3.7-4.8c4.5-4.5,12-12.1,11.8-13.9s-8.2,2.3-8.4-0.1c-0.2-2.4,7.4-11.4,7.3-13.1
					c-0.1-1.7-7.8,3.9-10,3.2c-2.1-0.7,1.4-7.7,1.3-11.6C32.6,565,31.8,563.8,30.7,563.5" />
					<path class="st6" d="M91.2,628.4c-1.3-0.4-2.9,0.4-4.2,2.5c-2.4,4-3.6,12.9-7.5,12.5s-10.5-10.1-10.7-7.6s6,17.2,5.3,20.1
					c-0.7,2.9-8.4-5.9-8.2-2.9c0.2,3,8.2,17.9,8.1,21s-8.2-5.6-9-3.9c-0.8,1.8,5.9,14,6,16.6s-6.5-4.4-7.4-3.8
					c-0.6,0.3,0.9,3.5,2.7,6.8l21.6,6.3c4.6-5,9.1-13.2,7.6-14c-1.7-1-10.9,7.3-11,6c-0.2-1.3,8.7-12,10.1-15.9s-4.6-0.8-6.9,0.1
					c-2.3,0.9-0.8-0.4,3.7-4.8c4.5-4.5,12-12.1,11.8-13.9c-0.2-1.8-8.2,2.3-8.4-0.1c-0.2-2.4,7.4-11.4,7.3-13.1
					c-0.1-1.7-7.8,3.9-10,3.2c-2.1-0.7,1.4-7.7,1.3-11.6C93.1,629.9,92.3,628.8,91.2,628.4" />
					<path class="st6" d="M1241.6,600.6c1.3-0.4,2.9,0.4,4.2,2.5c2.4,4,3.6,12.9,7.5,12.5s10.5-10.1,10.7-7.6s-6,17.2-5.3,20.1
					c0.7,2.9,8.4-5.9,8.2-2.9c-0.2,3-8.2,17.9-8.1,21s8.2-5.6,9-3.9c0.8,1.8-5.9,14-6,16.6s6.5-4.4,7.4-3.8c0.6,0.3-0.9,3.5-2.7,6.8
					l-21.6,6.3c-4.6-5-9.1-13.2-7.6-14c1.7-1,10.9,7.3,11,6c0.2-1.3-8.7-12-10.1-15.9s4.6-0.8,6.9,0.1c2.3,0.9,0.8-0.4-3.7-4.8
					c-4.5-4.5-12-12.1-11.8-13.9c0.2-1.8,8.2,2.3,8.4-0.1c0.2-2.4-7.3-11.4-7.3-13.1c0.1-1.7,7.8,3.9,10,3.2
					c2.1-0.7-1.4-7.7-1.3-11.6C1239.7,602.1,1240.5,600.9,1241.6,600.6" />
					<path class="st6" d="M1333.3,512.1c1.3-0.4,2.9,0.4,4.2,2.5c2.4,4,3.6,12.9,7.5,12.5s10.5-10.1,10.7-7.6s-6,17.1-5.3,20.1
					c0.7,2.9,8.4-5.9,8.2-2.9c-0.2,3-8.2,17.9-8.1,21s8.2-5.6,9-3.9c0.8,1.8-5.9,14-6,16.6s6.5-4.4,7.4-3.8c0.6,0.3-0.9,3.5-2.7,6.8
					l-21.6,6.3c-4.6-5-9.1-13.2-7.6-14c1.7-1,10.9,7.3,11,6c0.2-1.3-8.7-12-10.1-15.9s4.6-0.8,6.9,0.1c2.3,0.9,0.8-0.4-3.7-4.8
					c-4.5-4.5-12-12.1-11.8-13.9s8.2,2.3,8.4-0.1s-7.3-11.4-7.3-13.1c0.1-1.7,7.9,3.9,10,3.2s-1.4-7.7-1.3-11.6
					C1331.4,513.6,1332.2,512.4,1333.3,512.1" />
				</g>
				<path class="st0" d="M1301.7,512c0.5,0,1,0.1,1.6,0.4c17.9,8.7,15.7,152.2,15.7,152.2s6.7-73.9,20.9-60.9
				c12.6,11.6-8.8,93.4-13.8,111.9c2.9-9.5,11.5-31.9,25.8-19.2c11.3,10-7.6,46.4-23.1,72.1h-87.1c-6.7-17.3-11.7-36-5.5-43.1
				c12.7-14.5,31.4,15.2,31.4,15.2s-25.8-64.1-19.4-78.3c6.4-14.3,41.1,38.4,41.1,38.4s-36.6-85.5-18.7-82.6s32.1,29,32.1,29
				S1286.4,512.5,1301.7,512" />
			</g>
		</g>
		<path class="st0" d="M103,691.9C81.6,690.5,88.8,744,88.8,744s-13.2-57.3-26.4-50.2c-13.1,7,20.1,52.7,20.1,52.7
		s-33.7-43.1-33.7-21.2c0,15.8,12,34.3,25.5,43.3h52.3c20.9-8.9,40.9-26.4,37.6-34.3c-4.5-10.9-52.8,16-52.8,16s42.6-30.8,24.9-42.3
		c-15.1-9.9-39.5,36-39.5,36C99.2,723.2,126.3,692.6,103,691.9" />
	</g>
	<!-- <g class="clouds">
		<g class="cloud">
			<path class="st11" d="M140.3,157.6c0,4.4-5.9,8.6-16.4,11.6c-10.5,3.1-24.8,4.8-39.7,4.8c-31,0-56.1-7.4-56.1-16.5
			s25-16.3,56-16.3c14.9,0,29.2,1.7,39.7,4.8C134.4,149.1,140.3,153.3,140.3,157.6" />
			<path class="st11" d="M244,141.6c0,9.7-33.6,17.5-74.9,17.5c-41.4,0-74.9-7.8-74.9-17.5c0-4.6,7.9-9.1,22-12.4
			c14.1-3.3,33.1-5.1,53-5.1s38.9,1.8,53,5.1C236.1,132.5,244,137,244,141.6" />
			<path class="st11" d="M277.4,170.7c0,8.9-41,16.1-91.7,16.1c-50.6,0-91.7-7.2-91.7-16.1c0-8.9,41-16.1,91.7-16.1
			S277.4,161.8,277.4,170.7" />
		</g>
		<g class="cloud">
			<ellipse class="st11" cx="1054.8" cy="86.2" rx="120.1" ry="17.5" />
			<ellipse class="st11" cx="1098.2" cy="68.7" rx="93.6" ry="16.9" />
			<ellipse class="st11" cx="1081.5" cy="109.3" rx="88.5" ry="27.8" />
			<ellipse class="st11" cx="1162.2" cy="87.5" rx="120.1" ry="17.5" />
		</g>
		<g class="cloud">
			<ellipse class="st11" cx="565.1" cy="88.9" rx="88.3" ry="19.7" />

			<ellipse transform="matrix(0.9895 -0.1448 0.1448 0.9895 -11.3877 90.3455)" class="st11" cx="615" cy="123.4"
				rx="97.9" ry="33.7" />
			<ellipse class="st11" cx="520.1" cy="119.2" rx="81.3" ry="21" />
		</g>
	</g> -->
</svg>