<svg width="36" height="12" viewBox="0 0 36 12" fill="none" xmlns="http://www.w3.org/2000/svg">
<path d="M4.692 1.592H11.328V2.216H4.692V1.592ZM5.112 2.792H10.992V3.392H5.112V2.792ZM7.488 0.931999H8.364V3.116H7.488V0.931999ZM8.352 4.124H8.964V4.676C8.964 4.856 9 4.88 9.264 4.88C9.396 4.88 10.056 4.88 10.224 4.88C10.404 4.88 10.452 4.88 10.476 4.844C10.608 4.928 10.824 4.976 10.98 5C10.932 5.228 10.752 5.324 10.332 5.324C10.188 5.324 9.336 5.324 9.216 5.324C8.52 5.324 8.352 5.216 8.352 4.664V4.124ZM6.996 4.16H7.56C7.548 4.976 7.2 5.348 5.856 5.48C5.82 5.348 5.688 5.144 5.58 5.048C6.72 4.964 6.972 4.772 6.996 4.16ZM5.52 4.4V5.744H10.476V4.4H5.52ZM4.776 3.872H11.244V6.26H4.776V3.872ZM5.952 8.204V8.72H10.08V8.204H5.952ZM5.952 9.152V9.704H10.08V9.152H5.952ZM5.952 7.256V7.76H10.08V7.256H5.952ZM5.136 6.704H10.92V10.244H5.136V6.704ZM8.532 10.688L9.096 10.208C9.984 10.616 11.016 11.12 11.628 11.48L10.896 11.984C10.344 11.624 9.396 11.108 8.532 10.688ZM6.6 10.232L7.344 10.676C6.66 11.18 5.568 11.696 4.668 11.972C4.536 11.804 4.272 11.552 4.092 11.408C5.004 11.144 6.084 10.664 6.6 10.232ZM0.948 4.556H4.032V5.276H0.948V4.556ZM1.02 1.352H3.996V2.072H1.02V1.352ZM0.948 6.164H4.032V6.884H0.948V6.164ZM0.456 2.924H4.332V3.668H0.456V2.924ZM1.368 7.784H4.02V11.276H1.368V10.532H3.264V8.528H1.368V7.784ZM0.924 7.784H1.668V11.84H0.924V7.784ZM14.196 8.252H21.924V11.972H21.012V8.888H15.072V11.996H14.196V8.252ZM14.652 9.608H21.36V10.208H14.652V9.608ZM14.652 10.976H21.36V11.6H14.652V10.976ZM17.496 0.908H18.408V7.424H17.496V0.908ZM13.944 1.748H21.864V5.024H13.8V4.436H20.964V2.348H13.944V1.748ZM12.672 3.044H23.328V3.716H12.672V3.044ZM13.476 5.696H22.524V6.308H13.476V5.696ZM12.648 7.016H23.34V7.688H12.648V7.016ZM26.724 5.024V6.836H33.312V5.024H26.724ZM25.956 4.412H34.128V7.448H25.956V4.412ZM27.924 3.116H32.112V3.752H27.924V3.116ZM29.568 4.604H30.336V7.112H29.568V4.604ZM29.94 1.652C28.872 2.744 26.868 3.968 24.876 4.712C24.768 4.508 24.564 4.196 24.396 4.004C26.436 3.308 28.464 2.084 29.46 0.92H30.312C31.668 2.228 33.756 3.332 35.616 3.884C35.424 4.076 35.22 4.4 35.088 4.628C33.324 4.016 31.164 2.828 29.94 1.652ZM27.456 5.384L28.104 5.168C28.416 5.588 28.704 6.152 28.824 6.536L28.128 6.788C28.032 6.404 27.756 5.816 27.456 5.384ZM31.776 5.12L32.544 5.36C32.268 5.876 31.968 6.428 31.728 6.788L31.092 6.572C31.32 6.164 31.632 5.528 31.776 5.12ZM26.664 8.024H33.444V11.948H32.532V8.66H27.552V11.96H26.664V8.024ZM27.192 9.464H32.928V10.124H27.192V9.464ZM27.192 10.94H32.928V11.588H27.192V10.94Z" fill="black"/>
</svg>
